<svg width="246" height="22" viewBox="0 0 246 22" fill="none"
  xmlns="http://www.w3.org/2000/svg">
  <path d="M245.74 5.15199H239.691V21H235.1V5.15199H229.023V1.12H245.74V5.15199Z" fill="#42A9ED"/>
  <path d="M227.802 16.968V21H213.83V1.12H227.55V5.15199H218.422V9.016H226.262V12.74H218.422V16.968H227.802Z" fill="#42A9ED"/>
  <path d="M197.176 9.632V21H192.584V1.12H196.224L205.436 12.824V1.12H210.028V21H206.276L197.176 9.632Z" fill="#42A9ED"/>
  <path d="M185.492 21V16.436H189.16V21H185.492Z" fill="white"/>
  <path d="M177.475 21V9.156L173.191 17.78H170.671L166.387 9.156V21H161.795V1.12H166.779L171.931 11.508L177.111 1.12H182.067V21H177.475Z" fill="white"/>
  <path d="M149.417 21.168C147.83 21.168 146.477 20.9067 145.357 20.384C144.237 19.8427 143.322 19.1147 142.613 18.2C141.922 17.2667 141.409 16.212 141.073 15.036C140.755 13.8413 140.597 12.5907 140.597 11.284V1.12H145.189V11.284C145.189 12.0307 145.263 12.7587 145.413 13.468C145.562 14.1587 145.805 14.7747 146.141 15.316C146.477 15.8573 146.906 16.2867 147.429 16.604C147.97 16.9213 148.633 17.08 149.417 17.08C150.219 17.08 150.891 16.9213 151.433 16.604C151.974 16.268 152.403 15.8293 152.721 15.288C153.038 14.728 153.271 14.1027 153.421 13.412C153.57 12.7213 153.645 12.012 153.645 11.284V1.12H158.237V11.284C158.237 12.6653 158.059 13.9533 157.705 15.148C157.369 16.3427 156.846 17.3973 156.137 18.312C155.427 19.208 154.513 19.908 153.393 20.412C152.291 20.916 150.966 21.168 149.417 21.168Z" fill="white"/>
  <path d="M135.578 6.94403C135.522 6.85069 135.326 6.71069 134.99 6.52403C134.654 6.31869 134.234 6.10403 133.73 5.88003C133.226 5.65603 132.675 5.46003 132.078 5.29203C131.481 5.12403 130.883 5.04003 130.286 5.04003C129.502 5.04003 128.895 5.18003 128.466 5.46003C128.037 5.72136 127.822 6.13203 127.822 6.69203C127.822 7.14003 127.981 7.49469 128.298 7.75603C128.634 8.01736 129.11 8.25069 129.726 8.45603C130.342 8.64269 131.098 8.86669 131.994 9.12803C133.263 9.46403 134.365 9.87469 135.298 10.36C136.231 10.8267 136.941 11.4334 137.426 12.18C137.93 12.9267 138.182 13.916 138.182 15.148C138.182 16.268 137.977 17.22 137.566 18.004C137.155 18.7694 136.595 19.3947 135.886 19.88C135.195 20.3467 134.402 20.692 133.506 20.916C132.61 21.1214 131.686 21.224 130.734 21.224C129.763 21.224 128.765 21.1307 127.738 20.944C126.73 20.7387 125.759 20.4587 124.826 20.104C123.893 19.7307 123.034 19.2827 122.25 18.76L124.266 14.756C124.341 14.8494 124.583 15.0267 124.994 15.288C125.405 15.5307 125.909 15.792 126.506 16.072C127.122 16.3334 127.803 16.5667 128.55 16.772C129.297 16.9774 130.053 17.08 130.818 17.08C131.639 17.08 132.246 16.9494 132.638 16.688C133.049 16.4267 133.254 16.0627 133.254 15.596C133.254 15.092 133.039 14.7 132.61 14.42C132.199 14.14 131.63 13.888 130.902 13.664C130.193 13.44 129.371 13.188 128.438 12.908C127.225 12.5347 126.217 12.1147 125.414 11.648C124.63 11.1814 124.042 10.612 123.65 9.94003C123.277 9.26803 123.09 8.42803 123.09 7.42003C123.09 6.02003 123.417 4.84403 124.07 3.89203C124.742 2.92136 125.638 2.19336 126.758 1.70803C127.878 1.20403 129.101 0.952026 130.426 0.952026C131.359 0.952026 132.255 1.06403 133.114 1.28802C133.991 1.51203 134.803 1.79203 135.55 2.12803C136.315 2.46403 136.997 2.80003 137.594 3.13603L135.578 6.94403Z" fill="white"/>
  <path d="M106.205 21V1.12H114.689C115.641 1.12 116.509 1.316 117.293 1.708C118.095 2.08133 118.786 2.59466 119.365 3.248C119.943 3.88266 120.391 4.60133 120.709 5.404C121.026 6.20666 121.185 7.028 121.185 7.868C121.185 9.00666 120.914 10.0893 120.373 11.116C119.85 12.1427 119.113 12.9827 118.161 13.636C117.227 14.2707 116.117 14.588 114.829 14.588H110.797V21H106.205ZM110.797 10.584H114.549C114.903 10.584 115.23 10.4813 115.529 10.276C115.827 10.0707 116.07 9.76266 116.257 9.352C116.443 8.94133 116.537 8.43733 116.537 7.84C116.537 7.224 116.425 6.72 116.201 6.328C115.995 5.91733 115.725 5.61866 115.389 5.43199C115.071 5.24533 114.735 5.15199 114.381 5.15199H110.797V10.584Z" fill="white"/>
  <path d="M97.8102 21V1.12H102.402V21H97.8102Z" fill="white"/>
  <path d="M89.4004 21V9.156L85.1164 17.78H82.5964L78.3124 9.156V21H73.7204V1.12H78.7044L83.8564 11.508L89.0364 1.12H93.9924V21H89.4004Z" fill="white"/>
  <path d="M70.9307 16.968V21H56.9587V1.12H70.6787V5.15199H61.5507V9.016H69.3907V12.74H61.5507V16.968H70.9307Z" fill="white"/>
  <path d="M38.2009 21V1.12H47.1609C48.0942 1.12 48.9529 1.316 49.7369 1.708C50.5395 2.08133 51.2302 2.59466 51.8089 3.248C52.3875 3.88266 52.8355 4.60133 53.1529 5.404C53.4889 6.20666 53.6569 7.01866 53.6569 7.84C53.6569 8.66133 53.5262 9.44533 53.2649 10.192C53.0035 10.92 52.6302 11.5827 52.1449 12.18C51.6595 12.7587 51.0809 13.2347 50.4089 13.608L54.7769 21H49.7089L45.9009 14.588H42.7929V21H38.2009ZM42.7929 10.584H46.9929C47.3662 10.584 47.6929 10.472 47.9729 10.248C48.2715 10.0053 48.5142 9.67866 48.7009 9.268C48.8875 8.85733 48.9809 8.38133 48.9809 7.84C48.9809 7.29866 48.8689 6.832 48.6449 6.43999C48.4395 6.02933 48.1782 5.71199 47.8609 5.488C47.5435 5.26399 47.2075 5.15199 46.8529 5.15199H42.7929V10.584Z" fill="white"/>
  <path d="M25.6354 21.1681C24.1421 21.1681 22.7888 20.8881 21.5754 20.3281C20.3808 19.7494 19.3448 18.9841 18.4674 18.0321C17.6088 17.0614 16.9461 15.9787 16.4794 14.7841C16.0128 13.5707 15.7794 12.3201 15.7794 11.0321C15.7794 9.70672 16.0221 8.44672 16.5074 7.25206C17.0114 6.05739 17.7021 4.99339 18.5794 4.06006C19.4754 3.10806 20.5301 2.36139 21.7434 1.82006C22.9568 1.27872 24.2821 1.00806 25.7194 1.00806C27.1941 1.00806 28.5288 1.29739 29.7234 1.87606C30.9368 2.43606 31.9728 3.20139 32.8314 4.17206C33.7088 5.14272 34.3808 6.23472 34.8474 7.44806C35.3141 8.64272 35.5474 9.86539 35.5474 11.1161C35.5474 12.4414 35.3048 13.7014 34.8194 14.8961C34.3341 16.0907 33.6434 17.1641 32.7474 18.1161C31.8514 19.0494 30.7968 19.7961 29.5834 20.3561C28.3888 20.8974 27.0728 21.1681 25.6354 21.1681ZM20.4554 11.0881C20.4554 11.8534 20.5674 12.6001 20.7914 13.3281C21.0154 14.0374 21.3421 14.6721 21.7714 15.2321C22.2194 15.7921 22.7701 16.2401 23.4234 16.5761C24.0768 16.9121 24.8234 17.0801 25.6634 17.0801C26.5408 17.0801 27.3061 16.9121 27.9594 16.5761C28.6128 16.2214 29.1541 15.7547 29.5834 15.1761C30.0128 14.5974 30.3301 13.9534 30.5354 13.2441C30.7594 12.5161 30.8714 11.7787 30.8714 11.0321C30.8714 10.2667 30.7594 9.52939 30.5354 8.82006C30.3114 8.11072 29.9754 7.47606 29.5274 6.91606C29.0794 6.33739 28.5288 5.88939 27.8754 5.57206C27.2221 5.25472 26.4848 5.09606 25.6634 5.09606C24.7861 5.09606 24.0208 5.26406 23.3674 5.60006C22.7328 5.93606 22.1914 6.39339 21.7434 6.97206C21.3141 7.53206 20.9874 8.17606 20.7634 8.90406C20.5581 9.61339 20.4554 10.3414 20.4554 11.0881Z" fill="white"/>
  <path d="M0.903992 21V1.12H5.49599V16.968H15.128V21H0.903992Z" fill="white"/>
</svg>
